<mxfile host="Electron" modified="2024-05-12T11:11:57.707Z" agent="Mozilla/5.0 (Macintosh; Intel Mac OS X 10_15_7) AppleWebKit/537.36 (KHTML, like Gecko) draw.io/21.6.8 Chrome/114.0.5735.289 Electron/25.5.0 Safari/537.36" etag="uxlT5bUud0KVRXnovt5P" version="21.6.8" type="device" pages="2">
  <diagram id="UQjuTp7-HD1gct2fClFB" name="Production">
    <mxGraphModel dx="1317" dy="730" grid="1" gridSize="10" guides="1" tooltips="1" connect="1" arrows="1" fold="1" page="1" pageScale="1" pageWidth="827" pageHeight="1169" math="0" shadow="0">
      <root>
        <mxCell id="0" />
        <mxCell id="1" parent="0" />
        <mxCell id="uQsErlxzD96NEjkikjWR-5" value="&amp;nbsp; VPS running docker compose" style="rounded=0;whiteSpace=wrap;html=1;align=left;verticalAlign=top;" parent="1" vertex="1">
          <mxGeometry x="280" y="170" width="360" height="170" as="geometry" />
        </mxCell>
        <mxCell id="uQsErlxzD96NEjkikjWR-8" style="edgeStyle=orthogonalEdgeStyle;rounded=0;orthogonalLoop=1;jettySize=auto;html=1;entryX=0;entryY=0.5;entryDx=0;entryDy=0;" parent="1" source="uQsErlxzD96NEjkikjWR-1" target="uQsErlxzD96NEjkikjWR-4" edge="1">
          <mxGeometry relative="1" as="geometry">
            <Array as="points">
              <mxPoint x="55" y="261" />
              <mxPoint x="120" y="260" />
            </Array>
          </mxGeometry>
        </mxCell>
        <mxCell id="uQsErlxzD96NEjkikjWR-1" value="User" style="shape=umlActor;verticalLabelPosition=bottom;verticalAlign=top;html=1;outlineConnect=0;" parent="1" vertex="1">
          <mxGeometry x="50" y="240" width="20" height="40" as="geometry" />
        </mxCell>
        <mxCell id="uQsErlxzD96NEjkikjWR-11" style="edgeStyle=orthogonalEdgeStyle;rounded=0;orthogonalLoop=1;jettySize=auto;html=1;startArrow=classic;startFill=1;exitX=1;exitY=0.5;exitDx=0;exitDy=0;entryX=0;entryY=0.5;entryDx=0;entryDy=0;" parent="1" source="uQsErlxzD96NEjkikjWR-4" target="uQsErlxzD96NEjkikjWR-6" edge="1">
          <mxGeometry relative="1" as="geometry">
            <mxPoint x="300" y="305" as="targetPoint" />
          </mxGeometry>
        </mxCell>
        <mxCell id="uQsErlxzD96NEjkikjWR-25" style="edgeStyle=orthogonalEdgeStyle;rounded=0;orthogonalLoop=1;jettySize=auto;html=1;entryX=0.55;entryY=0.95;entryDx=0;entryDy=0;entryPerimeter=0;startArrow=classic;startFill=1;exitX=0.5;exitY=0;exitDx=0;exitDy=0;" parent="1" source="uQsErlxzD96NEjkikjWR-4" target="uQsErlxzD96NEjkikjWR-24" edge="1">
          <mxGeometry relative="1" as="geometry" />
        </mxCell>
        <mxCell id="uQsErlxzD96NEjkikjWR-26" value="Receives IP address from&lt;br&gt;domain name" style="edgeLabel;html=1;align=center;verticalAlign=middle;resizable=0;points=[];" parent="uQsErlxzD96NEjkikjWR-25" vertex="1" connectable="0">
          <mxGeometry x="0.0791" y="-3" relative="1" as="geometry">
            <mxPoint as="offset" />
          </mxGeometry>
        </mxCell>
        <mxCell id="uQsErlxzD96NEjkikjWR-4" value="Browser" style="rounded=0;whiteSpace=wrap;html=1;" parent="1" vertex="1">
          <mxGeometry x="120" y="240" width="120" height="39" as="geometry" />
        </mxCell>
        <mxCell id="uQsErlxzD96NEjkikjWR-6" value="Caddy reverse proxy" style="rounded=0;whiteSpace=wrap;html=1;" parent="1" vertex="1">
          <mxGeometry x="320" y="200" width="60" height="120" as="geometry" />
        </mxCell>
        <mxCell id="xeC5OaSxVrxuoD8hUNjN-3" style="edgeStyle=orthogonalEdgeStyle;rounded=0;orthogonalLoop=1;jettySize=auto;html=1;entryX=0;entryY=0.5;entryDx=0;entryDy=0;startArrow=classic;startFill=1;" edge="1" parent="1" source="uQsErlxzD96NEjkikjWR-16" target="xeC5OaSxVrxuoD8hUNjN-2">
          <mxGeometry relative="1" as="geometry" />
        </mxCell>
        <mxCell id="uQsErlxzD96NEjkikjWR-16" value="Caddy File Server" style="rounded=0;whiteSpace=wrap;html=1;" parent="1" vertex="1">
          <mxGeometry x="500" y="199.5" width="120" height="40" as="geometry" />
        </mxCell>
        <mxCell id="uQsErlxzD96NEjkikjWR-24" value="DNS" style="ellipse;shape=cloud;whiteSpace=wrap;html=1;" parent="1" vertex="1">
          <mxGeometry x="131" y="160" width="86" height="28" as="geometry" />
        </mxCell>
        <mxCell id="8LilrlQPJZZoPF-HrpbN-1" value="Umami panel" style="rounded=0;whiteSpace=wrap;html=1;" parent="1" vertex="1">
          <mxGeometry x="500" y="279.5" width="120" height="40" as="geometry" />
        </mxCell>
        <mxCell id="K5NucjZaBuA5SGe4v_ZZ-1" value="" style="endArrow=classic;html=1;rounded=0;exitX=0;exitY=0.5;exitDx=0;exitDy=0;startArrow=classic;startFill=1;" edge="1" parent="1" source="8LilrlQPJZZoPF-HrpbN-1">
          <mxGeometry width="50" height="50" relative="1" as="geometry">
            <mxPoint x="550" y="340" as="sourcePoint" />
            <mxPoint x="380" y="300" as="targetPoint" />
          </mxGeometry>
        </mxCell>
        <mxCell id="K5NucjZaBuA5SGe4v_ZZ-2" value="on the subdomain&lt;br&gt;&quot;tracking&quot;" style="edgeLabel;html=1;align=center;verticalAlign=middle;resizable=0;points=[];" vertex="1" connectable="0" parent="K5NucjZaBuA5SGe4v_ZZ-1">
          <mxGeometry x="0.0185" y="-1" relative="1" as="geometry">
            <mxPoint as="offset" />
          </mxGeometry>
        </mxCell>
        <mxCell id="K5NucjZaBuA5SGe4v_ZZ-3" value="" style="endArrow=classic;html=1;rounded=0;exitX=0;exitY=0.5;exitDx=0;exitDy=0;entryX=1.006;entryY=0.166;entryDx=0;entryDy=0;entryPerimeter=0;startArrow=classic;startFill=1;" edge="1" parent="1" source="uQsErlxzD96NEjkikjWR-16" target="uQsErlxzD96NEjkikjWR-6">
          <mxGeometry width="50" height="50" relative="1" as="geometry">
            <mxPoint x="480" y="350" as="sourcePoint" />
            <mxPoint x="530" y="300" as="targetPoint" />
          </mxGeometry>
        </mxCell>
        <mxCell id="K5NucjZaBuA5SGe4v_ZZ-4" value="on route /" style="edgeLabel;html=1;align=center;verticalAlign=middle;resizable=0;points=[];" vertex="1" connectable="0" parent="K5NucjZaBuA5SGe4v_ZZ-3">
          <mxGeometry x="-0.0219" relative="1" as="geometry">
            <mxPoint x="-3" as="offset" />
          </mxGeometry>
        </mxCell>
        <mxCell id="xeC5OaSxVrxuoD8hUNjN-2" value="External Container Registry" style="rounded=0;whiteSpace=wrap;html=1;" vertex="1" parent="1">
          <mxGeometry x="680" y="199.5" width="120" height="40" as="geometry" />
        </mxCell>
        <mxCell id="xeC5OaSxVrxuoD8hUNjN-6" style="edgeStyle=orthogonalEdgeStyle;rounded=0;orthogonalLoop=1;jettySize=auto;html=1;entryX=1;entryY=0.5;entryDx=0;entryDy=0;" edge="1" parent="1" source="xeC5OaSxVrxuoD8hUNjN-4" target="xeC5OaSxVrxuoD8hUNjN-2">
          <mxGeometry relative="1" as="geometry" />
        </mxCell>
        <mxCell id="xeC5OaSxVrxuoD8hUNjN-7" value="pushes new&lt;br&gt;website&lt;br&gt;versions" style="edgeLabel;html=1;align=center;verticalAlign=middle;resizable=0;points=[];" vertex="1" connectable="0" parent="xeC5OaSxVrxuoD8hUNjN-6">
          <mxGeometry x="0.0576" y="2" relative="1" as="geometry">
            <mxPoint x="4" y="-2" as="offset" />
          </mxGeometry>
        </mxCell>
        <mxCell id="xeC5OaSxVrxuoD8hUNjN-4" value="Dev" style="shape=umlActor;verticalLabelPosition=bottom;verticalAlign=top;html=1;outlineConnect=0;" vertex="1" parent="1">
          <mxGeometry x="900" y="199.5" width="20" height="40" as="geometry" />
        </mxCell>
      </root>
    </mxGraphModel>
  </diagram>
  <diagram id="pAa_cnPHXKai3gRPujQP" name="Development">
    <mxGraphModel dx="1580" dy="876" grid="1" gridSize="10" guides="1" tooltips="1" connect="1" arrows="1" fold="1" page="1" pageScale="1" pageWidth="827" pageHeight="1169" math="0" shadow="0">
      <root>
        <mxCell id="0" />
        <mxCell id="1" parent="0" />
        <mxCell id="rpxNZSeJhdQ-lwcTZO9C-2" value="&amp;nbsp; Local machine running docker compose" style="rounded=0;whiteSpace=wrap;html=1;align=left;verticalAlign=top;" parent="1" vertex="1">
          <mxGeometry x="279" y="20" width="520" height="310" as="geometry" />
        </mxCell>
        <mxCell id="rpxNZSeJhdQ-lwcTZO9C-3" value="&amp;nbsp; Minio" style="rounded=0;whiteSpace=wrap;html=1;verticalAlign=top;align=left;" parent="1" vertex="1">
          <mxGeometry x="619" y="50" width="150" height="180" as="geometry" />
        </mxCell>
        <mxCell id="rpxNZSeJhdQ-lwcTZO9C-4" style="edgeStyle=orthogonalEdgeStyle;rounded=0;orthogonalLoop=1;jettySize=auto;html=1;entryX=0;entryY=0.5;entryDx=0;entryDy=0;" parent="1" source="rpxNZSeJhdQ-lwcTZO9C-5" target="rpxNZSeJhdQ-lwcTZO9C-7" edge="1">
          <mxGeometry relative="1" as="geometry">
            <Array as="points">
              <mxPoint x="89" y="140" />
              <mxPoint x="89" y="140" />
            </Array>
          </mxGeometry>
        </mxCell>
        <mxCell id="rpxNZSeJhdQ-lwcTZO9C-5" value="User" style="shape=umlActor;verticalLabelPosition=bottom;verticalAlign=top;html=1;outlineConnect=0;" parent="1" vertex="1">
          <mxGeometry x="29" y="110" width="30" height="60" as="geometry" />
        </mxCell>
        <mxCell id="rpxNZSeJhdQ-lwcTZO9C-6" style="edgeStyle=orthogonalEdgeStyle;rounded=0;orthogonalLoop=1;jettySize=auto;html=1;entryX=0;entryY=0.5;entryDx=0;entryDy=0;" parent="1" source="rpxNZSeJhdQ-lwcTZO9C-7" target="rpxNZSeJhdQ-lwcTZO9C-10" edge="1">
          <mxGeometry relative="1" as="geometry" />
        </mxCell>
        <mxCell id="rpxNZSeJhdQ-lwcTZO9C-7" value="Browser" style="rounded=0;whiteSpace=wrap;html=1;" parent="1" vertex="1">
          <mxGeometry x="109" y="110" width="120" height="60" as="geometry" />
        </mxCell>
        <mxCell id="rpxNZSeJhdQ-lwcTZO9C-8" style="edgeStyle=orthogonalEdgeStyle;rounded=0;orthogonalLoop=1;jettySize=auto;html=1;entryX=0;entryY=0.5;entryDx=0;entryDy=0;startArrow=classic;startFill=1;exitX=1;exitY=0.25;exitDx=0;exitDy=0;" parent="1" source="rpxNZSeJhdQ-lwcTZO9C-7" target="rpxNZSeJhdQ-lwcTZO9C-11" edge="1">
          <mxGeometry relative="1" as="geometry">
            <mxPoint x="429" y="110" as="sourcePoint" />
          </mxGeometry>
        </mxCell>
        <mxCell id="rpxNZSeJhdQ-lwcTZO9C-9" value="On port 9001" style="edgeLabel;html=1;align=center;verticalAlign=middle;resizable=0;points=[];" parent="rpxNZSeJhdQ-lwcTZO9C-8" vertex="1" connectable="0">
          <mxGeometry x="0.0455" y="-3" relative="1" as="geometry">
            <mxPoint x="86" y="-3" as="offset" />
          </mxGeometry>
        </mxCell>
        <mxCell id="rpxNZSeJhdQ-lwcTZO9C-10" value="Nginx" style="rounded=0;whiteSpace=wrap;html=1;" parent="1" vertex="1">
          <mxGeometry x="305" y="150" width="120" height="150" as="geometry" />
        </mxCell>
        <mxCell id="rpxNZSeJhdQ-lwcTZO9C-11" value="Admin panel" style="rounded=0;whiteSpace=wrap;html=1;" parent="1" vertex="1">
          <mxGeometry x="634" y="80" width="120" height="60" as="geometry" />
        </mxCell>
        <mxCell id="rpxNZSeJhdQ-lwcTZO9C-12" value="&lt;span style=&quot;&quot;&gt;File Server&lt;/span&gt;" style="rounded=0;whiteSpace=wrap;html=1;" parent="1" vertex="1">
          <mxGeometry x="634" y="150" width="120" height="60" as="geometry" />
        </mxCell>
        <mxCell id="rpxNZSeJhdQ-lwcTZO9C-13" style="edgeStyle=orthogonalEdgeStyle;rounded=0;orthogonalLoop=1;jettySize=auto;html=1;entryX=0;entryY=0.5;entryDx=0;entryDy=0;startArrow=classic;startFill=1;" parent="1" target="rpxNZSeJhdQ-lwcTZO9C-12" edge="1">
          <mxGeometry relative="1" as="geometry">
            <mxPoint x="429" y="180" as="sourcePoint" />
            <mxPoint x="574" y="120" as="targetPoint" />
          </mxGeometry>
        </mxCell>
        <mxCell id="rpxNZSeJhdQ-lwcTZO9C-14" value="On route /*&lt;br&gt;of the selected domain" style="edgeLabel;html=1;align=center;verticalAlign=middle;resizable=0;points=[];" parent="rpxNZSeJhdQ-lwcTZO9C-13" vertex="1" connectable="0">
          <mxGeometry x="0.0455" y="-3" relative="1" as="geometry">
            <mxPoint x="-7" y="-3" as="offset" />
          </mxGeometry>
        </mxCell>
        <mxCell id="rpxNZSeJhdQ-lwcTZO9C-15" style="edgeStyle=orthogonalEdgeStyle;rounded=0;orthogonalLoop=1;jettySize=auto;html=1;entryX=1;entryY=0.75;entryDx=0;entryDy=0;startArrow=classic;startFill=1;exitX=0.25;exitY=1;exitDx=0;exitDy=0;endArrow=none;endFill=0;" parent="1" source="rpxNZSeJhdQ-lwcTZO9C-7" target="rpxNZSeJhdQ-lwcTZO9C-7" edge="1">
          <mxGeometry relative="1" as="geometry">
            <mxPoint x="59" y="255" as="sourcePoint" />
            <mxPoint x="264" y="255" as="targetPoint" />
            <Array as="points">
              <mxPoint x="139" y="235" />
              <mxPoint x="249" y="235" />
              <mxPoint x="249" y="155" />
            </Array>
          </mxGeometry>
        </mxCell>
        <mxCell id="rpxNZSeJhdQ-lwcTZO9C-16" value="Resolves the domain name&lt;br&gt;internally on /etc/hosts" style="edgeLabel;html=1;align=center;verticalAlign=middle;resizable=0;points=[];" parent="rpxNZSeJhdQ-lwcTZO9C-15" vertex="1" connectable="0">
          <mxGeometry x="0.0455" y="-3" relative="1" as="geometry">
            <mxPoint x="-19" y="-3" as="offset" />
          </mxGeometry>
        </mxCell>
        <mxCell id="rpxNZSeJhdQ-lwcTZO9C-17" value="* certificates are self-signed and generated manually" style="text;html=1;strokeColor=none;fillColor=none;align=left;verticalAlign=middle;whiteSpace=wrap;rounded=0;fontSize=12;" parent="1" vertex="1">
          <mxGeometry x="279" y="330" width="296.5" height="30" as="geometry" />
        </mxCell>
        <mxCell id="1p4S8nx9ZDC6T-co-XQO-1" value="&lt;span style=&quot;&quot;&gt;Umami panel&lt;/span&gt;" style="rounded=0;whiteSpace=wrap;html=1;" parent="1" vertex="1">
          <mxGeometry x="634" y="240" width="120" height="60" as="geometry" />
        </mxCell>
        <mxCell id="EpH-ABsOvG1yuRVNbu-w-1" style="edgeStyle=orthogonalEdgeStyle;rounded=0;orthogonalLoop=1;jettySize=auto;html=1;entryX=0;entryY=0.5;entryDx=0;entryDy=0;startArrow=classic;startFill=1;" parent="1" target="1p4S8nx9ZDC6T-co-XQO-1" edge="1">
          <mxGeometry relative="1" as="geometry">
            <mxPoint x="425" y="269.5" as="sourcePoint" />
            <mxPoint x="630" y="269.5" as="targetPoint" />
          </mxGeometry>
        </mxCell>
        <mxCell id="EpH-ABsOvG1yuRVNbu-w-2" value="On the subdomain &quot;tracking&quot;&lt;br&gt;of one of the configured domains" style="edgeLabel;html=1;align=center;verticalAlign=middle;resizable=0;points=[];" parent="EpH-ABsOvG1yuRVNbu-w-1" vertex="1" connectable="0">
          <mxGeometry x="0.0455" y="-3" relative="1" as="geometry">
            <mxPoint x="-7" y="-3" as="offset" />
          </mxGeometry>
        </mxCell>
      </root>
    </mxGraphModel>
  </diagram>
</mxfile>
